<?xml version="1.0" standalone="no"?><!DOCTYPE svg PUBLIC "-//W3C//DTD SVG 1.1//EN" "http://www.w3.org/Graphics/SVG/1.1/DTD/svg11.dtd"><svg t="1516863952788" class="icon" style="" viewBox="0 0 1024 1024" version="1.1" xmlns="http://www.w3.org/2000/svg" p-id="2598" xmlns:xlink="http://www.w3.org/1999/xlink" width="200" height="200"><defs><style type="text/css"></style></defs><path d="M369.6128 688.3712c-48.3712 34.0992-101.824 71.872-101.824 146.0608 0 5.9904 0 11.52 1.8432 28.5568l185.6768 0 0-31.7824L299.1232 831.2064c1.3824-56.2176 47.0016-88.4608 88.4608-117.0304 39.168-28.1088 75.0976-52.5312 74.6496-94.912-0.9216-63.1168-42.3936-79.7056-95.8336-79.7056-29.0304 0-59.4432 5.0688-88.4608 9.216l4.608 31.3344c28.5696-4.1472 58.9696-8.7552 83.8528-8.7552 35.9424 0 64.0384 9.6768 64.512 47.9104C431.36 645.5296 401.8688 665.8048 369.6128 688.3712z" p-id="2599"></path><path d="M536.4352 771.7632c0 74.176 56.6784 98.5984 112.4224 98.5984 57.1264 0 107.3536-24.4224 107.3536-103.6672 0-38.2336-16.128-62.1952-39.168-76.48 19.3536-11.52 33.1776-31.3344 33.1776-64.512 0-67.7248-48.384-88-101.3632-88-52.5312 0-106.432 20.736-106.432 83.392 0 36.4032 15.6672 57.6 37.3248 69.5808C554.4064 704.96 536.4352 730.304 536.4352 771.7632zM573.76 621.1072c0-39.168 38.2336-52.0576 75.0976-52.0576 37.3248 0 70.0288 13.3632 70.0288 56.6656 0 39.168-36.864 47.9232-70.0288 47.9232l-2.7648 0C612.4544 672.7168 573.76 663.9616 573.76 621.1072zM646.0928 704.96l8.2944 0c34.56 1.3824 70.4896 16.5888 70.4896 61.7344 0 55.744-35.9424 72.3328-76.0192 72.3328-40.5504 0-81.088-16.5888-81.088-67.264S609.7024 706.3424 646.0928 704.96z" p-id="2600"></path><path d="M921.6 128l-76.8 0L844.8 76.8c0-42.24-34.56-76.8-76.8-76.8s-76.8 34.56-76.8 76.8l0 51.2L332.8 128 332.8 76.8c0-42.24-34.56-76.8-76.8-76.8s-76.8 34.56-76.8 76.8l0 51.2L102.4 128c-56.32 0-102.4 46.08-102.4 102.4l0 153.6 0 51.2 0 486.4c0 56.32 46.08 102.4 102.4 102.4l819.2 0c56.32 0 102.4-46.08 102.4-102.4L1024 435.2l0-51.2L1024 230.4C1024 174.08 977.92 128 921.6 128zM742.4 76.8c0-13.8752 11.7248-25.6 25.6-25.6s25.6 11.7248 25.6 25.6l0 153.6c0 13.8752-11.7248 25.6-25.6 25.6s-25.6-11.7248-25.6-25.6L742.4 76.8zM230.4 76.8c0-13.8752 11.7248-25.6 25.6-25.6s25.6 11.7248 25.6 25.6l0 153.6c0 13.8752-11.7248 25.6-25.6 25.6s-25.6-11.7248-25.6-25.6L230.4 76.8zM972.8 921.6c0 28.2368-22.9632 51.2-51.2 51.2L102.4 972.8c-28.2368 0-51.2-22.9632-51.2-51.2L51.2 435.2l921.6 0L972.8 921.6zM972.8 384 51.2 384 51.2 230.4c0-28.2368 22.9632-51.2 51.2-51.2l76.8 0 0 51.2c0 42.24 34.56 76.8 76.8 76.8s76.8-34.56 76.8-76.8l0-51.2 358.4 0 0 51.2c0 42.24 34.56 76.8 76.8 76.8s76.8-34.56 76.8-76.8l0-51.2 76.8 0c28.2368 0 51.2 22.9632 51.2 51.2L972.8 384z" p-id="2601"></path></svg>