<?xml version="1.0" standalone="no"?><!DOCTYPE svg PUBLIC "-//W3C//DTD SVG 1.1//EN" "http://www.w3.org/Graphics/SVG/1.1/DTD/svg11.dtd"><svg t="1514526418817" class="icon" style="" viewBox="0 0 1024 1024" version="1.1" xmlns="http://www.w3.org/2000/svg" p-id="1833" xmlns:xlink="http://www.w3.org/1999/xlink" width="200" height="200"><defs><style type="text/css"></style></defs><path d="M529.066667 17.066667L938.666667 221.866667c12.8 8.533333 21.333333 21.333333 21.333333 34.133333v512c0 17.066667-8.533333 29.866667-25.6 34.133333l-405.333333 204.8c-12.8 4.266667-25.6 4.266667-34.133334 0L85.333333 802.133333c-12.8-8.533333-21.333333-21.333333-21.333333-34.133333V256c0-17.066667 12.8-29.866667 25.6-38.4L494.933333 12.8c12.8 0 25.6 0 34.133334 4.266667zM375.466667 162.133333l341.333333 170.666667L853.333333 264.533333l-341.333333-170.666666-136.533333 68.266666zM170.666667 264.533333l341.333333 170.666667 153.6-76.8-341.333333-170.666667L170.666667 264.533333z m-29.866667 34.133334v443.733333l345.6 174.933333V473.6L140.8 298.666667z m392.533333 618.666666l349.866667-174.933333V298.666667c-115.2 59.733333-230.4 115.2-349.866667 174.933333v443.733333z" p-id="1834"></path></svg>