<?xml version="1.0" standalone="no"?><!DOCTYPE svg PUBLIC "-//W3C//DTD SVG 1.1//EN" "http://www.w3.org/Graphics/SVG/1.1/DTD/svg11.dtd"><svg t="1515476674865" class="icon" style="" viewBox="0 0 1024 1024" version="1.1" xmlns="http://www.w3.org/2000/svg" p-id="2923" xmlns:xlink="http://www.w3.org/1999/xlink" width="200" height="200"><defs><style type="text/css"></style></defs><path d="M919.2 242.183h-813.158c-32.453 0-58.761-26.307-58.761-58.761s26.307-58.761 58.761-58.761h813.158c32.453 0 58.761 26.307 58.761 58.761s-26.307 58.761-58.761 58.761zM919.2 569.889h-813.158c-32.453 0-58.761-26.307-58.761-58.761s26.307-58.761 58.761-58.761h813.158c32.453 0 58.761 26.307 58.761 58.761s-26.307 58.761-58.761 58.761zM919.2 897.594h-813.158c-32.453 0-58.761-26.307-58.761-58.761s26.307-58.761 58.761-58.761h813.158c32.453 0 58.761 26.307 58.761 58.761s-26.307 58.761-58.761 58.761z" p-id="2924"></path></svg>