<?xml version="1.0" standalone="no"?><!DOCTYPE svg PUBLIC "-//W3C//DTD SVG 1.1//EN" "http://www.w3.org/Graphics/SVG/1.1/DTD/svg11.dtd"><svg t="1515129652172" class="icon" style="" viewBox="0 0 1084 1024" version="1.1" xmlns="http://www.w3.org/2000/svg" p-id="1841" xmlns:xlink="http://www.w3.org/1999/xlink" width="211.71875" height="200"><defs><style type="text/css"></style></defs><path d="M706.086004 1023.956067c-19.646938 0-38.731531-8.13204-51.063587-21.72498-16.795672-18.421201-70.029561-66.31281-113.593746-66.31281-43.269833 0-97.312093 48.172781-112.838095 65.04314-12.301303 13.377667-31.25849 21.351547-50.707728 21.351547-9.265517 0-18.008229-1.770509-25.990896-5.280773l-1.40147-0.615066L218.062562 942.367675l-1.313603-0.926991c-24.110554-16.870358-33.288205-49.881784-21.338368-76.786491 0.09226-0.210879 12.21783-28.174377 12.21783-53.673221 0-77.419129-62.973885-140.384227-140.384227-140.384227h-4.696462l-0.847911 0.01318c-22.173099 0-40.225261-19.699658-45.998086-50.184923C15.240436 617.982315 4.393322 560.170584 4.393322 514.607437c0-45.554361 10.84272-103.374878 11.304019-105.813172 5.834332-30.871877 24.2775-50.707728 46.845998-50.171743h4.687675c77.410342 0 140.38862-62.973885 140.38862-140.384227 0-25.498844-12.116783-53.466735-12.248583-53.743514-11.927871-26.878347-2.6975-59.876592 21.514101-76.698624l1.370716-0.953351L358.02503 10.069495l1.458583-0.615065C367.352054 6.097932 375.980539 4.393322 385.101076 4.393322c19.405305 0 38.402032 7.802541 50.813168 20.890249 16.545253 17.318477 68.830183 62.367606 111.151059 62.367606 41.925477 0 93.898482-44.157284 110.377835-61.172622 12.340843-12.819715 31.20577-20.490456 50.426555-20.490456 9.318237 0 18.096095 1.761722 26.087549 5.23684l1.41465 0.619458 134.989227 74.994015 1.33557 0.931385c24.150094 16.852785 33.349711 49.86421 21.395481 76.78649-0.09226 0.202093-12.209043 28.183164-12.209044 53.682008 0 77.410342 62.969491 140.384227 140.375441 140.384227h4.687675c22.533351-0.505232 41.011665 19.299866 46.854784 50.167349 0.456906 2.438294 11.290839 60.263205 11.290839 105.817566 0 45.554361-10.838327 103.374878-11.304019 105.821959-5.838726 30.87627-24.308253 50.633042-46.845997 50.171743h-4.687676c-77.405949 0-140.379834 62.965098-140.379833 140.384227 0 25.49445 12.116783 53.453555 12.239796 53.734727 11.923477 26.847594 2.71068 59.859019-21.465773 76.698624l-1.357537 0.948958-137.264968 75.872679-1.436616 0.619459c-7.837687 3.378465-16.426633 5.096254-25.503238 5.096254z m-4.173656-64.678494c0.619458 0.404186 2.346034 1.089544 4.169263 1.089544h0.206486l128.24987-70.890652c-3.092899-7.196262-17.256971-42.092423-17.25697-78.499886 0-108.875318 85.762048-198.112485 193.271043-203.696397 1.550843-8.536226 9.959662-56.59478 9.959662-92.672745 0-36.064784-8.404426-84.110159-9.950876-92.677138-107.517781-5.57952-193.27983-94.812293-193.279829-203.692004 0-36.45579 14.203612-71.400277 17.274544-78.54382l-126.163042-70.091067a6.225338 6.225338 0 0 0-0.531592-0.017573c-2.143941 0-4.160476 0.782011-4.832655 1.23013-2.117581 2.170301-20.406983 20.723302-46.679052 39.197224-38.885297 27.361612-75.657407 41.235725-109.292683 41.235724-33.964776 0-71.026845-14.142105-110.162562-42.039702-26.430228-18.834174-44.811889-37.734247-46.929471-39.948482-0.672178-0.461299-2.701893-1.26967-4.863408-1.26967-0.175733 0-0.329499 0-0.452512 0.008787L253.969187 139.773555c3.128046 7.288522 17.235004 42.123176 17.235004 78.460347 0 108.879711-85.766442 198.108091-193.275437 203.692004-1.550843 8.553799-9.950875 56.60796-9.950875 92.672744 0 36.060391 8.400033 84.114552 9.955269 92.677138 107.508995 5.583913 193.271043 94.816686 193.271043 203.696398 0 36.52169-14.260725 71.53647-17.296511 78.587752l123.685208 69.159683 0.27678 0.008787c1.805656 0 3.514658-0.663392 4.129723-1.050004 2.315281-2.486621 20.784809-22.050086 47.39077-41.538865 39.662915-29.075008 77.353229-43.810212 112.02533-43.810211 34.997207 0 72.986267 15.02077 112.873241 44.640549 26.768514 19.870998 45.317122 39.781535 47.623616 42.307696z m-160.031165-258.419622c-103.084919 0-186.949052-83.87292-186.949052-186.953446 0-103.089312 83.864133-186.957839 186.949052-186.957838s186.953445 83.868526 186.953445 186.957838c0 103.084919-83.868526 186.953445-186.953445 186.953446z m0-310.317941c-68.026205 0-123.368889 55.333897-123.368889 123.368889 0 68.013026 55.342683 123.360102 123.368889 123.360102 68.021812 0 123.364496-55.347077 123.364496-123.360102-0.004393-68.034992-55.347077-123.368889-123.364496-123.368889z m0 0" p-id="1842"></path></svg>