<?xml version="1.0" standalone="no"?><!DOCTYPE svg PUBLIC "-//W3C//DTD SVG 1.1//EN" "http://www.w3.org/Graphics/SVG/1.1/DTD/svg11.dtd"><svg t="1515131311461" class="icon" style="" viewBox="0 0 1024 1024" version="1.1" xmlns="http://www.w3.org/2000/svg" p-id="3051" xmlns:xlink="http://www.w3.org/1999/xlink" width="200" height="200"><defs><style type="text/css"></style></defs><path d="M511.871 831.313c-161.152 0-296.854-108.215-338.641-255.846l104 0c9.9-9.588 15.055-22.58 5.186-32.168L162.301 421.935c-9.869-9.588-25.891-9.588-35.791 0L7.205 543.299c-14.178 16.646-4.715 22.58 5.186 32.168l95.316 0c43.381 183.266 207.471 319.809 404.164 319.809 149.66 0 280.457-79.172 353.787-197.633l-60.213-24.047C742.42 768.602 634.516 831.313 511.871 831.313zM1013.508 415.563l-90.914 0C891.736 216.403 719.871 63.775 511.871 63.775c-160.404 0-299.352 90.789-368.84 223.585l59.619 23.828c59.746-109.309 175.801-183.451 309.221-183.451 172.584 0 315.904 124.113 346.043 287.826L748.666 415.563c-9.9 9.619-19.363 15.553-5.184 32.199l119.303 121.333c9.9 9.588 25.922 9.588 35.791 0l120.115-121.333C1028.561 438.144 1023.408 425.183 1013.508 415.563z" p-id="3052"></path></svg>